<?xml version="1.0" encoding="UTF-8" standalone="no"?>
<svg
   version="1.1"
   width="54mm"
   height="43mm"
   viewBox="0 0 49 35"
   id="svg9"
   sodipodi:docname="gerbolyzer_template.svg"
   inkscape:version="1.4 (e7c3feb1, 2024-10-09)"
   xmlns:inkscape="http://www.inkscape.org/namespaces/inkscape"
   xmlns:sodipodi="http://sodipodi.sourceforge.net/DTD/sodipodi-0.dtd"
   xmlns="http://www.w3.org/2000/svg"
   xmlns:svg="http://www.w3.org/2000/svg">
  <defs
     id="defs9" />
  <sodipodi:namedview
     id="namedview9"
     pagecolor="#505050"
     bordercolor="#eeeeee"
     borderopacity="1"
     inkscape:showpageshadow="0"
     inkscape:pageopacity="0"
     inkscape:pagecheckerboard="0"
     inkscape:deskcolor="#505050"
     inkscape:document-units="mm"
     inkscape:zoom="5.1740741"
     inkscape:cx="101.95061"
     inkscape:cy="88.131711"
     inkscape:window-width="1920"
     inkscape:window-height="1015"
     inkscape:window-x="3206"
     inkscape:window-y="751"
     inkscape:window-maximized="0"
     inkscape:current-layer="g-outline" />
  <g
     id="g-top-paste"
     inkscape:label="top paste"
     inkscape:groupmode="layer" />
  <g
     id="g-top-silk"
     inkscape:label="top silk"
     inkscape:groupmode="layer" />
  <g
     id="g-top-mask"
     inkscape:label="top mask"
     inkscape:groupmode="layer">
    <path
       d="m 49.95,34.625 h 1"
       id="path1" />
    <path
       d="m 2.95,34.625 h 1"
       id="path2" />
  </g>
  <g
     id="g-top-copper"
     inkscape:label="top copper"
     inkscape:groupmode="layer">
    <path
       d="m 49.95,34.625 h 1"
       id="path3" />
    <path
       d="m 2.95,34.625 h 1"
       id="path4" />
  </g>
  <g
     id="g-bottom-copper"
     inkscape:label="bottom copper"
     inkscape:groupmode="layer">
    <path
       d="m 49.95,34.625 h 1"
       id="path5" />
    <path
       d="m 2.95,34.625 h 1"
       id="path6" />
  </g>
  <g
     id="g-bottom-mask"
     inkscape:label="bottom mask"
     inkscape:groupmode="layer">
    <path
       d="m 49.95,34.625 h 1"
       id="path7" />
    <path
       d="m 2.95,34.625 h 1"
       id="path8" />
  </g>
  <g
     id="g-bottom-silk"
     inkscape:label="bottom silk"
     inkscape:groupmode="layer" />
  <g
     id="g-bottom-paste"
     inkscape:label="bottom paste"
     inkscape:groupmode="layer" />
  <g
     id="g-outline"
     inkscape:label="outline"
     inkscape:groupmode="layer">
    <path
       d="M 48.999948,36.899028 V 35.629757 H 46.099317 V 22.029528 h 2.900631 V 0.78584385 l -4.8e-4,-0.027108 -7.2e-4,-0.027108 -9.59e-4,-0.027347 -0.0012,-0.027108 -0.0015,-0.027108 -0.0038,-0.054215 -0.0048,-0.054215 -0.0029,-0.027108 -0.0032,-0.027108 -0.0033,-0.026868 -0.0077,-0.053975 -0.0086,-0.053735 -0.0048,-0.026628 -0.005,-0.026868 -0.0053,-0.026628 -0.0056,-0.026628 -0.0057,-0.026628 -0.006,-0.026388 -0.0065,-0.026389 -0.0065,-0.026388 -0.007,-0.026388 -0.0071,-0.026388 -0.0071,-0.026149 -0.0077,-0.026149 -0.0079,-0.025909 -0.0082,-0.025909 -0.0083,-0.025909 -0.0089,-0.025669 -0.0089,-0.025909 -0.0091,-0.025429 -0.0095,-0.025669 -0.0097,-0.025189 -0.01006,-0.025429 -0.01006,-0.025189 -0.01058,-0.025189 -0.01058,-0.024949 -0.01098,-0.024949 -0.01125,-0.024709 -0.01151,-0.024709 -0.01178,-0.024468 -0.01178,-0.024468 -0.01217,-0.024229 -0.01244,-0.024229 -0.0127,-0.023989 -0.01297,-0.023989 -0.01323,-0.02375 -0.01323,-0.023749 -0.01367,-0.02351 -0.01391,-0.02351 -0.01416,-0.02327 -0.0144,-0.02303 -0.01438,-0.02303 -0.01487,-0.02279 -0.01511,-0.022791 -0.01511,-0.02255 -0.01559,-0.02231 -0.01559,-0.02207 -0.01582,-0.02207 -0.01631,-0.02207 -0.01631,-0.021591 -0.01655,-0.02159 -0.01679,-0.02135 -0.01703,-0.021351 -0.01727,-0.021109 -0.01727,-0.020871 -0.01774,-0.020631 -0.01774,-0.020631 -0.01798,-0.0203899 -0.01823,-0.020151 -0.01847,-0.019912 -0.01871,-0.019912 -0.01871,-0.01943 -0.01919,-0.01943 -0.01919,-0.01943 -0.01942,-0.018951 -0.01942,-0.018951 -0.01991,-0.018712 -0.01991,-0.018233 -0.02015,-0.018233 -0.02039,-0.018233 -0.02063,-0.017751 -0.02063,-0.017751 -0.02087,-0.017272 -0.0211,-0.017273 -0.0211,-0.017032 -0.02134,-0.016792 -0.02158,-0.016552 -0.02182,-0.016312 -0.02183,-0.016312 -0.02207,-0.015834 -0.02207,-0.015834 -0.02255,-0.015353 -0.02231,-0.015353 -0.02278,-0.015113 -0.02278,-0.014633 -0.02302,-0.014633 -0.02302,-0.014393 -0.02326,-0.014152 -0.0235,-0.013914 -0.0235,-0.013675 -0.0235,-0.013434 -0.02375,-0.013195 -0.02399,-0.012717 -0.02399,-0.012717 -0.02423,-0.012477 -0.02446,-0.012239 -0.02423,-0.012001 -0.0247,-0.011749 -0.02446,-0.01151 -0.02494,-0.011272 -0.0247,-0.011033 -0.02518,-0.010557 -0.02494,-0.010557 -0.02518,-0.010317 -0.02542,-0.00984 -0.02542,-0.00984 -0.02542,-0.00937 -0.02566,-0.00937 -0.02567,-0.00887 -0.02567,-0.00863 -0.02591,-0.00863 -0.02591,-0.00816 -0.02591,-0.00792 -0.02614,-0.00768 -0.02615,-0.00743 -0.02638,-0.00697 -0.02615,-0.00697 -0.02638,-0.00672 -0.02662,-0.00623 -0.02638,-0.00623 -0.02662,-0.00575 -0.02662,-0.00551 -0.02662,-0.00527 -0.02686,-0.00505 -0.02662,-0.0048 -0.02686,-0.00456 -0.02686,-0.00408 -0.02686,-0.00408 -0.0271,-0.0036 -0.02686,-0.00335 -0.0271,-0.00312 -0.02686,-0.00288 -0.0271,-0.00264 -0.0271,-0.00241 -0.0271,-0.00192 -0.0271,-0.00192 -0.02734,-0.00144 -0.0271,-0.0012 -0.0271,-0.0012 -0.02734,-4.799e-4 -0.0271,-4.796e-4 -0.0271,-2.398e-4 H 2.769245 l -0.027102,2.398e-4 -0.027102,2.399e-4 -0.027342,7.196e-4 -0.027102,9.597e-4 -0.027103,0.0012 -0.027341,0.00168 -0.027102,0.00168 -0.027102,0.00192 -0.027103,0.00241 -0.027102,0.00264 -0.026861,0.00288 -0.027103,0.00312 -0.026861,0.00335 -0.027102,0.0036 -0.026863,0.00383 -0.026863,0.00433 -0.026861,0.00456 -0.026863,0.00456 -0.026622,0.00505 -0.026621,0.00527 -0.026623,0.00551 -0.026622,0.00575 -0.026621,0.00623 -0.026382,0.00623 -0.026382,0.00672 -0.026382,0.00672 -0.026143,0.0072 -0.026144,0.00743 -0.026142,0.00767 -0.025902,0.00792 -0.026142,0.00816 -0.025662,0.00839 -0.025902,0.00863 -0.025662,0.00887 -0.025662,0.00937 -0.025424,0.00937 -0.025423,0.0096 -0.025183,0.010078 -0.025184,0.010317 -0.025183,0.010317 -0.024942,0.010793 -0.024944,0.011033 -0.024703,0.011033 -0.024703,0.011509 -0.024703,0.011749 -0.024224,0.012002 -0.024463,0.012239 -0.024224,0.01224 -0.023984,0.012717 -0.023983,0.012956 -0.023744,0.013195 -0.023744,0.013435 -0.023505,0.013674 -0.023265,0.013675 -0.023265,0.014152 -0.023265,0.014393 -0.022784,0.014633 -0.022784,0.014633 -0.022784,0.015113 -0.022545,0.015353 -0.022305,0.015353 -0.022304,0.015834 -0.022065,0.015834 -0.021825,0.016073 -0.021825,0.016312 -0.021586,0.016553 -0.021346,0.016792 -0.021105,0.017032 -0.021105,0.017272 -0.020866,0.017513 -0.0208663,0.017513 -0.0203859,0.017751 -0.0203859,0.018233 -0.0201465,0.018233 -0.019907,0.018233 -0.019907,0.018712 -0.0196675,0.018951 -0.0194266,0.018952 -0.0191871,0.019192 -0.0189476,0.01943 -0.0189476,0.019671 -0.0187081,0.019671 -0.0184673,0.02015 -0.0182278,0.020151 -0.0179883,0.020151 -0.0179883,0.020631 -0.017508,0.020631 -0.017508,0.020872 -0.0172685,0.021109 -0.0167882,0.02135 -0.017029,0.021351 -0.0165486,0.021591 -0.0163093,0.02159 -0.0160698,0.021829 -0.0160697,0.02207 -0.0155895,0.02231 -0.0155895,0.02231 -0.0151104,0.02255 -0.0151104,0.02255 -0.0148697,0.022791 -0.0143907,0.02303 -0.0143906,0.02327 -0.014151,0.02303 -0.0139102,0.02351 -0.0136708,0.02351 -0.0134312,0.02375 -0.0131918,0.02375 -0.0129536,0.023989 -0.0127154,0.023989 -0.0124773,0.024229 -0.0122259,0.024229 -0.0117495,0.024468 -0.0117495,0.024468 -0.0115115,0.024709 -0.0112732,0.024709 -0.0110351,0.024949 -0.0107969,0.024949 -0.0103073,0.024949 -0.0103074,0.025429 -0.0100691,0.025189 -0.009593,0.025429 -0.009593,0.025429 -0.009116,0.025669 -0.008878,0.025669 -0.008878,0.025669 -0.008389,0.025909 -0.008151,0.025909 -0.007912,0.026148 -0.007674,0.025909 -0.007436,0.026388 -0.007198,0.026149 -0.00696,0.026388 -0.00647,0.026388 -0.00647,0.026388 -0.005994,0.026628 -0.005756,0.026388 -0.005517,0.026628 -0.0052794,0.026628 -0.0050412,0.026868 -0.0048031,0.026868 -0.0045517,0.026628 -0.0043135,0.026868 -0.0038372,0.027108 -0.003599,0.026868 -0.003599,0.026868 -0.0031226,0.027108 -0.0028845,0.027108 -0.0023949,0.027108 -0.0023949,0.027108 -0.0021567,0.027108 -0.0016804,0.027108 -0.0016804,0.027108 -0.0011993,0.027108 -9.5928e-4,0.027347 -7.1954e-4,0.027108 -4.7965e-4,0.027108 V 0.81103235 22.029528 H 2.9505645 V 35.629757 H 0.04993305 v 1.269271 z"
       style="clip-rule:evenodd;fill:none;fill-rule:evenodd;stroke:#000000;stroke-width:0.0671627px;stroke-linecap:round;stroke-linejoin:round"
       id="path9"
       inkscape:label="path9" />
  </g>
  <g
     id="g-drill-plated"
     inkscape:label="drill plated"
     inkscape:groupmode="layer" />
  <g
     id="g-drill-nonplated"
     inkscape:label="drill nonplated"
     inkscape:groupmode="layer" />
  <g
     id="g-comments"
     inkscape:label="comments"
     inkscape:groupmode="layer" />
</svg>
